HIERARCHY
ROOT Hips
{
	OFFSET	0.00	0.00	0.00
	CHANNELS 6 Xposition Yposition Zposition Zrotation Xrotation Yrotation
	JOINT Chest
	{
		OFFSET	 0.000000	 4.570000	 0.000000
		CHANNELS 3 Zrotation Xrotation Yrotation
		JOINT Neck
		{
			OFFSET	 0.000000	 17.620001	 0.000000
			CHANNELS 3 Zrotation Xrotation Yrotation
			JOINT Head
			{
				OFFSET	 0.000000	 5.190000	 0.000000
				CHANNELS 3 Zrotation Xrotation Yrotation
				End Site 
				{
					OFFSET	 0.000000	 4.140008	 0.000000
				}
			}
		}
		JOINT LeftCollar
		{
			OFFSET	 1.060000	 15.330000	 01.760000
			CHANNELS 3 Zrotation Xrotation Yrotation
			JOINT LeftShoulder
			{
				OFFSET	 5.00000	 0.000000	 0.000000
				CHANNELS 3 Zrotation Xrotation Yrotation
				JOINT LeftElbow
				{
					OFFSET	 0.000000	-11.90000	 0.000000
					CHANNELS 3 Zrotation Xrotation Yrotation
					JOINT LeftWrist
					{
						OFFSET	 0.000000	-9.520000	 0.000000
						CHANNELS 3 Zrotation Xrotation Yrotation
						End Site 
						{
							OFFSET	 0.000000	-7.0	 0.000000
						}
					}
				}
			}
		}
		JOINT RightCollar
		{
			OFFSET	-1.060000	 15.330000	 01.760000
			CHANNELS 3 Zrotation Xrotation Yrotation
			JOINT RightShoulder
			{
				OFFSET	-5.000000	 0.000000	 0.000000
				CHANNELS 3 Zrotation Xrotation Yrotation
				JOINT RightElbow
				{
					OFFSET	 0.000000	-11.900000	 0.000000
					CHANNELS 3 Zrotation Xrotation Yrotation
					JOINT RightWrist
					{
						OFFSET	 0.000000	-9.520000	 0.000000
						CHANNELS 3 Zrotation Xrotation Yrotation
						End Site 
						{
							OFFSET	 0.000000	-7.0	 0.000000
						}
					}
				}
			}
		}
	}
	JOINT LeftHip
	{
		OFFSET	 3.430000	 0.000000	 0.000000
		CHANNELS 3 Zrotation Xrotation Yrotation
		JOINT LeftKnee
		{
			OFFSET	 0.000000	-19.0	 0.000000
			CHANNELS 3 Zrotation Xrotation Yrotation
			JOINT LeftAnkle
			{
				OFFSET	 0.000000	-15.00000	 0.000000
				CHANNELS 3 Zrotation Xrotation Yrotation
				End Site 
				{
					OFFSET	 0.000000	-3.0	 0.000000
				}
			}
		}
	}
	JOINT RightHip
	{
		OFFSET	-3.430000	 0.000000	 0.000000
		CHANNELS 3 Zrotation Xrotation Yrotation
		JOINT RightKnee
		{
			OFFSET	 0.000000	-19.0	 0.000000
			CHANNELS 3 Zrotation Xrotation Yrotation
			JOINT RightAnkle
			{
				OFFSET	 0.000000	-15.00000	 0.000000
				CHANNELS 3 Zrotation Xrotation Yrotation
				End Site 
				{
					OFFSET	 0.000000	-3.0	 0.000000
				}
			}
		}
	}
}
MOTION
Frames: 8
Frame Time: 0.033333333
0.104783	34.368320	1.779275	355.445903	-357.238964	-0.982413	2.311714	5.823557	6.586558	-355.104230	-330.636335	-1.516878	358.481348	348.147054	-5.386030	11.146035	24.622756	4.384767	16.296057	-5.451272	8.704124	121.631964	-131.528430	42.464644	-23.838457	6.484425	56.974902	-358.183798	-337.390326	-26.394184	-40.834729	-11.188170	59.324412	296.167076	295.386248	-3.927421	-140.808622	162.371077	99.444177	0.502918	10.911285	17.559921	7.535058	8.552949	0.603947	-359.275918	-347.195226	-21.004906	9.312111	8.043560	0.694641	352.532090	-350.034836	-0.362246	32.906778	11.486511	6.841586	
0.099253	34.372035	1.814314	355.196820	-357.210879	-0.962658	2.503172	5.933012	6.602415	-354.998444	-330.368673	-1.572391	358.383786	348.239972	-5.452723	11.355227	24.642704	3.910227	16.746394	-6.193328	8.919952	119.918010	-131.853410	40.485720	-23.946578	7.213200	57.272876	-358.361410	-337.371065	-26.258440	-40.946297	-11.256665	59.253228	294.505618	295.070830	-5.611430	-141.951380	162.860911	99.715520	1.043589	10.250159	17.654934	7.387057	10.004001	0.410273	-358.337942	-348.216995	-20.589714	9.476050	6.917201	0.916379	352.650061	-347.815107	-0.054660	34.663626	10.190137	7.451028	
0.087387	34.362320	1.881901	354.875364	-357.181263	-0.911935	2.733249	5.948678	6.629921	-354.911045	-330.095684	-1.623772	358.422035	348.431627	-5.303099	11.934726	24.651289	3.650975	16.929190	-7.029846	8.985051	118.728929	-132.217405	39.454208	-24.177083	7.312690	57.318734	-358.605685	-337.361421	-26.173337	-41.064684	-11.209727	59.193737	293.508684	294.997447	-7.800133	-143.411702	161.849360	100.079781	1.598838	9.634818	17.758794	7.387987	11.406709	0.233723	-357.647464	-349.356598	-20.125413	9.816045	6.029507	1.122545	-7.410268	14.050865	0.204243	36.518316	9.344639	7.915592	
0.085771	34.345114	2.019103	354.614177	-357.325872	-0.917765	2.936097	6.030517	6.648442	-354.974866	-329.857857	-1.626168	358.435395	348.594213	-5.216253	12.419592	24.645301	3.746279	17.320874	-7.644552	9.170931	117.467940	-132.732142	38.861641	-24.014395	7.027552	57.193387	-358.754337	-337.380026	-26.270392	-41.443739	-11.212003	58.983326	292.248842	294.784181	-9.419613	-144.288371	160.664117	100.344499	1.969943	9.603384	17.799761	7.482671	12.306825	0.121047	-357.866604	-350.691108	-19.647262	10.270267	5.693088	1.245767	-7.740109	15.460640	0.418825	36.991409	7.298556	8.261728	
0.099232	34.330279	2.226492	354.488748	-357.723990	-1.046218	3.063137	6.198259	6.649671	-355.156795	-329.439440	-1.607177	358.288437	348.579296	-5.237859	12.304985	24.630095	4.114705	18.312345	-7.942825	9.689794	116.204655	-133.406363	38.453636	-23.140675	7.077747	57.186744	-358.862418	-337.387512	-26.304072	-42.071608	-11.211107	58.636851	291.060881	294.642086	-10.172094	-144.341141	160.699798	100.357893	2.182861	10.059986	17.777787	7.498579	13.152055	0.013234	-359.007628	-352.174762	-19.023567	10.715200	5.892466	1.261717	-8.227022	16.619470	0.624322	35.449261	3.519701	8.335268	
0.119746	34.310271	2.491403	354.469405	-358.195273	-1.284157	3.103582	6.279941	6.647418	-355.396152	-328.939442	-1.573939	358.192377	348.578831	-4.957917	11.815250	24.609745	4.612718	19.445152	-7.947560	10.294784	115.277922	-133.895173	37.802016	-22.246832	7.458734	57.290792	-358.927223	-337.380299	-26.253160	-42.794279	-11.174290	58.244956	290.573451	294.731916	-10.148731	-143.658654	161.283657	100.151765	2.260453	10.542998	17.736766	-352.538428	-345.639145	-0.139680	359.675402	-353.784829	-17.967459	11.025928	6.411528	1.189690	-8.667777	17.524843	0.805089	33.742315	-0.180962	8.040183	
0.146439	34.272031	2.806129	354.543881	-358.549705	-1.519485	3.055556	6.101284	6.657155	-355.632750	-328.522200	-1.530874	358.424986	348.733958	-4.328781	11.330176	24.591192	5.042478	20.247491	-7.725063	10.733760	115.131755	-133.882728	37.733799	-22.319285	7.504743	57.329792	-358.883674	-337.387184	-26.299825	-43.698989	-11.066459	57.765599	291.112708	294.704923	-10.199958	-143.155338	160.697954	100.023343	2.147844	10.745255	17.706331	-352.398819	-344.157103	-0.335321	358.779718	-355.349843	-16.932896	10.817401	6.818372	1.080245	-8.465357	18.550421	0.954192	34.245902	-1.796571	8.316090	
0.191779	34.207289	3.167664	354.766135	-358.833349	-1.702745	2.892160	5.685439	6.671706	-355.751240	-328.018870	-1.530917	358.395042	348.963043	-4.239871	10.844951	24.568717	5.525478	20.907989	-7.297609	11.108806	115.420386	-133.822281	38.417880	-22.870381	7.606302	57.445796	-358.824907	-337.405789	-26.418881	-44.655267	-10.813295	57.280308	292.267256	294.565068	-10.567748	-143.418136	159.507944	100.106357	1.805189	10.703108	17.681223	-351.838662	-342.488297	-0.599661	356.771534	-355.630592	-17.255723	10.044092	6.908915	0.978703	-7.690304	20.120594	1.106811	35.528758	-2.331920	9.238097	
